<?xml version="1.0" encoding="UTF-8" standalone="no"?>
<!-- Created with Inkscape (http://www.inkscape.org/) -->

<svg
   xmlns:dc="http://purl.org/dc/elements/1.1/"
   xmlns:cc="http://creativecommons.org/ns#"
   xmlns:rdf="http://www.w3.org/1999/02/22-rdf-syntax-ns#"
   xmlns:svg="http://www.w3.org/2000/svg"
   xmlns="http://www.w3.org/2000/svg"
   xmlns:sodipodi="http://sodipodi.sourceforge.net/DTD/sodipodi-0.dtd"
   xmlns:inkscape="http://www.inkscape.org/namespaces/inkscape"
   width="210mm"
   height="297mm"
   viewBox="0 0 744.09448819 1052.3622047"
   id="svg2"
   version="1.1"
   inkscape:version="0.91 r13725"
   sodipodi:docname="Donut.svg">
  <defs
     id="defs4" />
  <sodipodi:namedview
     id="base"
     pagecolor="#ffffff"
     bordercolor="#666666"
     borderopacity="1.0"
     inkscape:pageopacity="0.0"
     inkscape:pageshadow="2"
     inkscape:zoom="1"
     inkscape:cx="246.84989"
     inkscape:cy="605.71429"
     inkscape:document-units="px"
     inkscape:current-layer="layer1"
     showgrid="false"
     inkscape:snap-grids="true"
     inkscape:window-width="1920"
     inkscape:window-height="1018"
     inkscape:window-x="-8"
     inkscape:window-y="-8"
     inkscape:window-maximized="1" />
  <metadata
     id="metadata7">
    <rdf:RDF>
      <cc:Work
         rdf:about="">
        <dc:format>image/svg+xml</dc:format>
        <dc:type
           rdf:resource="http://purl.org/dc/dcmitype/StillImage" />
        <dc:title />
      </cc:Work>
    </rdf:RDF>
  </metadata>
  <g
     inkscape:label="Layer 1"
     inkscape:groupmode="layer"
     id="layer1">
    <g
       id="g4380">
      <g
         id="g4215">
        <path
           style="opacity:1;fill:#ff0000;fill-opacity:1;stroke:none;stroke-width:3.20900011;stroke-linecap:round;stroke-linejoin:round;stroke-miterlimit:4;stroke-dasharray:none;stroke-opacity:1"
           d="m -34.83398,253.36133 c 4.37361,69.83552 40.36413,109.31882 111.40039,115.1582 14.50061,-51.79909 40.69623,-97.26339 118.58984,-114.72461 l -0.10498,-0.1084 -0.10498,-0.1084 -0.10498,-0.10839 -0.10498,-0.1084 -57.39258,0 -59.39257,17 -42.39258,16 c -27.27901,11.71606 -51.03361,-18.31591 -70.39258,-33 z"
           id="rect4165"
           inkscape:connector-curvature="0"
           sodipodi:nodetypes="ccccccccccc" />
        <g
           id="g4176">
          <path
             id="path4144"
             d="M 337.5 194.41602 A 249.44605 249.44605 0 0 0 88.054688 443.86133 A 249.44605 249.44605 0 0 0 337.5 693.30859 A 249.44605 249.44605 0 0 0 586.94531 443.86133 A 249.44605 249.44605 0 0 0 514.44141 268.30273 A 52.40796 52.621212 30.000014 0 1 462.75391 268.0625 A 52.40796 52.621212 30.000014 0 1 437.21484 215.54102 A 249.44605 249.44605 0 0 0 434.47461 214.31445 A 35.318408 35.462121 30.000014 0 1 401.77344 213.04102 A 35.318408 35.462121 30.000014 0 1 388.88672 200.0625 A 249.44605 249.44605 0 0 0 337.5 194.41602 z M 337.5 356.55664 A 87.306112 87.306112 0 0 1 424.80664 443.86133 A 87.306112 87.306112 0 0 1 337.5 531.16797 A 87.306112 87.306112 0 0 1 250.19336 443.86133 A 87.306112 87.306112 0 0 1 337.5 356.55664 z "
             style="fill:#ffb380;fill-rule:evenodd;stroke:none;stroke-width:1.10864747px;stroke-linecap:butt;stroke-linejoin:miter;stroke-opacity:1;opacity:1" />
          <path
             id="path4150"
             d="M 334.25977 171.99414 C 240.41576 172.67863 149.31781 225.10165 102.74805 306.91211 C 78.697838 347.99946 65.997442 393.68535 65.728516 441.29102 A 12.50125 12.50125 0 0 0 65.728516 441.33008 C 65.691226 455.94375 67.838194 470.84281 73.609375 483.5293 C 79.380556 496.21579 91.027025 507.98242 106.7793 507.98242 C 113.9301 507.98242 120.87909 505.3763 125.94336 501.27148 C 131.00763 497.16667 134.35314 492.00672 136.93945 486.68945 C 142.11208 476.05491 144.64044 464.13349 147.45703 452.88867 C 150.27362 441.64386 153.38704 431.17111 157.14258 424.91602 C 160.89812 418.66092 163.05587 416.72266 169.73438 416.72266 C 177.90487 416.72266 179.22205 418.3666 182.03516 423.12891 C 184.84826 427.89121 187.00268 436.79257 189 446.82031 C 190.99732 456.84806 192.83675 467.99165 198.83789 478.28125 C 204.83903 488.57085 217.22404 497.0332 232.44531 497.0332 C 242.56709 497.0332 251.14299 495.06585 257.98633 490.63867 C 264.82967 486.21149 269.14653 479.41007 271.17383 473 C 275.18084 460.33029 272.9888 448.51029 272.77539 441.39062 C 273.27258 416.97661 287.7066 394.415 310.27148 385.13672 A 12.50125 12.50125 0 0 0 310.65234 384.97266 C 319.69344 380.89846 329.43214 378.89487 339.50195 379.02539 A 12.50125 12.50125 0 0 0 339.61719 379.02734 C 372.22057 379.14824 402.85611 410.88199 402.58984 443.25781 A 12.50125 12.50125 0 0 0 402.5918 443.60547 C 402.91985 460.40422 404.02059 480.10388 408.84961 497.125 C 411.26412 505.63556 414.56041 513.63253 420.23438 520.3125 C 425.90832 526.99247 434.91291 532.01758 444.75781 532.01758 C 454.08456 532.01758 462.81223 528.97925 469.28516 523.67578 C 475.75808 518.37232 479.90316 511.37839 482.78711 504.05859 C 488.55502 489.41901 489.96878 472.62478 491.375 456.4707 C 492.78122 440.31663 494.13901 424.7379 497.19336 415.05664 C 498.72053 410.21601 500.60074 407.11097 502.05273 405.68555 C 503.50473 404.26012 504.25748 403.75391 507.42383 403.75391 C 508.2205 403.75391 508.00009 403.45722 509.48242 405.16797 C 510.96475 406.87872 513.11981 410.76349 514.98633 416.16406 C 518.71936 426.96521 521.53808 443.30674 524.43359 460.0332 C 527.32911 476.75967 530.2786 493.88645 535.86914 508.25195 C 538.66441 515.43471 542.10922 522.07708 547.47461 527.56055 C 552.84 533.04402 560.82948 537.04492 569.3418 537.04492 C 578.95049 537.04492 587.32567 531.37854 592.43555 524.6582 C 597.54542 517.93786 600.67021 509.97084 603.07227 501.20898 C 607.87242 483.69974 609.44508 462.69564 609.25977 443.28906 C 609.07533 393.43907 595.09885 343.78492 569.0332 301.30273 A 35.318408 40.858531 30 0 1 532.21875 303.83203 A 35.318408 40.858531 30 0 1 515.88867 273.24805 A 52.40796 60.628788 30 0 1 454.74609 281.93164 A 52.40796 60.628788 30 0 1 432.31055 221.87695 A 35.318408 40.858531 30 0 1 395.07031 224.65039 A 35.318408 40.858531 30 0 1 382.79688 175.7832 C 369.96744 173.60109 356.96387 172.34065 343.89453 172.09375 C 340.6719 172.00245 337.45966 171.97115 334.26172 171.99414 A 12.50125 12.50125 0 0 0 334.25977 171.99414 z "
             style="color:#000000;font-style:normal;font-variant:normal;font-weight:normal;font-stretch:normal;font-size:medium;line-height:normal;font-family:sans-serif;text-indent:0;text-align:start;text-decoration:none;text-decoration-line:none;text-decoration-style:solid;text-decoration-color:#000000;letter-spacing:normal;word-spacing:normal;text-transform:none;direction:ltr;block-progression:tb;writing-mode:lr-tb;baseline-shift:baseline;text-anchor:start;white-space:normal;clip-rule:nonzero;display:inline;overflow:visible;visibility:visible;opacity:1;isolation:auto;mix-blend-mode:normal;color-interpolation:sRGB;color-interpolation-filters:linearRGB;solid-color:#000000;solid-opacity:1;fill:#3e352f;fill-opacity:1;fill-rule:evenodd;stroke:none;stroke-width:25;stroke-linecap:round;stroke-linejoin:round;stroke-miterlimit:4;stroke-dasharray:none;stroke-dashoffset:0;stroke-opacity:1;color-rendering:auto;image-rendering:auto;shape-rendering:auto;text-rendering:auto;enable-background:accumulate" />
          <path
             id="path4195"
             d="M 334.35156 184.49414 C 245.12001 185.14499 157.78006 235.44389 113.57422 313.15625 C 90.56392 352.43967 78.485346 395.89606 78.228516 441.36133 C 78.160916 467.84803 86.801898 495.48242 106.7793 495.48242 C 142.97531 495.48242 125.73588 404.22266 169.73438 404.22266 C 216.67405 404.22266 185.95605 484.5332 232.44531 484.5332 C 266.46046 484.5332 260.65429 458.11554 260.25977 441.36133 C 260.76901 412.08794 278.06453 384.86438 305.51758 373.57617 C 316.23651 368.74589 327.82008 366.37382 339.66406 366.52734 C 379.87065 366.67643 415.41773 403.4929 415.08984 443.36133 C 415.729 476.0909 419.98836 519.51758 444.75781 519.51758 C 500.03584 519.51758 459.69949 391.25391 507.42578 391.25391 C 544.09251 391.25391 528.32343 524.54492 569.34375 524.54492 C 590.22444 524.54492 597.12061 480.56072 596.75977 443.36133 C 596.59454 397.44942 584.10663 351.61115 560.89258 312.04492 A 35.318408 45.869483 30 0 1 525.99414 314.60938 A 35.318408 45.869483 30 0 1 510.78906 282.08203 A 52.40796 68.064394 30 0 1 447.31055 294.81055 A 52.40796 68.064394 30 0 1 427.37695 230.42188 A 35.318408 45.869483 30 0 1 388.84766 235.42773 A 35.318408 45.869483 30 0 1 376.8418 187.48242 C 365.84726 185.78136 354.73546 184.79521 343.58594 184.58789 C 340.50865 184.50009 337.42999 184.47202 334.35156 184.49414 z "
             style="opacity:1;fill:#6c5d53;fill-rule:evenodd;stroke:none;stroke-width:1.10864747px;stroke-linecap:butt;stroke-linejoin:miter;stroke-opacity:1" />
          <path
             id="path4153"
             d="M 507.87305 403.73438 C 507.75852 403.73546 507.623 403.75391 507.42383 403.75391 C 504.25748 403.75391 503.50473 404.26012 502.05273 405.68555 C 500.60074 407.11097 498.72053 410.21601 497.19336 415.05664 C 494.13901 424.7379 492.78122 440.31663 491.375 456.4707 C 489.96878 472.62478 488.55502 489.41901 482.78711 504.05859 C 479.90316 511.37839 475.75808 518.37232 469.28516 523.67578 C 463.47794 528.43381 455.85455 531.36071 447.61328 531.91406 C 424.30898 560.34718 390.69447 580.36722 353.7793 583.85938 C 288.26518 591.40745 220.84017 546.79973 202.53906 483.43945 C 201.12889 481.79624 199.88097 480.06971 198.83789 478.28125 C 192.83675 467.99165 190.99732 456.84806 189 446.82031 C 187.00268 436.79257 184.84826 427.89121 182.03516 423.12891 C 179.22205 418.3666 177.90487 416.72266 169.73438 416.72266 C 163.05587 416.72266 160.89812 418.66092 157.14258 424.91602 C 153.38704 431.17111 150.27362 441.64386 147.45703 452.88867 C 146.47112 456.82478 145.51566 460.84363 144.47461 464.86133 C 151.86134 524.88709 186.51557 581.92097 239.81055 611.64648 C 302.17774 647.91499 384.99228 647.43105 445.21484 606.83398 C 487.3922 579.22612 517.83174 534.59709 529.33008 485.83594 C 527.44842 477.41621 525.92962 468.67526 524.43359 460.0332 C 521.53808 443.30674 518.71936 426.96521 514.98633 416.16406 C 513.11981 410.76349 510.96475 406.87872 509.48242 405.16797 C 508.37067 403.88491 508.21664 403.73112 507.87305 403.73438 z "
             style="opacity:0.556;fill:#ffffff;fill-rule:evenodd;stroke:none;stroke-width:1.10899997;stroke-linecap:butt;stroke-linejoin:miter;stroke-miterlimit:4;stroke-dasharray:none;stroke-opacity:1" />
          <path
             id="path4210"
             d="M 336.93945 247.41211 C 249.96768 246.74663 166.43441 312.99669 147.85742 398.44922 C 147.28614 400.8701 146.76983 403.30087 146.30078 405.74023 C 146.97116 405.02518 147.6579 404.31943 148.38086 403.63477 C 163.89151 390.34834 190.79979 395.6248 200.39844 413.29492 C 209.76597 371.92772 237.08565 334.40468 275.72461 315.94141 C 295.32199 306.33241 317.15587 301.5291 338.94727 301.33398 C 403.15342 300.02323 462.0898 350.04842 476.83398 411.44727 C 479.35562 402.6501 483.42379 394.44151 490.51953 388.4707 C 501.51897 380.25734 519.93916 381.74304 526.91016 394.50781 C 527.52704 395.46458 528.10757 396.4356 528.67188 397.41211 C 520.6339 364.19343 503.53415 333.18858 480.0625 308.26562 A 52.40796 75.5 30 0 1 439.875 307.68945 A 52.40796 75.5 30 0 1 418.71289 264.57227 C 414.48591 262.71377 410.18236 261.01163 405.80273 259.48633 C 383.84962 251.38604 360.46563 247.15004 336.93945 247.41211 z "
             style="opacity:0.556;fill:#ffffff;fill-rule:evenodd;stroke:none;stroke-width:1.10899997;stroke-linecap:butt;stroke-linejoin:miter;stroke-miterlimit:4;stroke-dasharray:none;stroke-opacity:1" />
          <rect
             style="opacity:1;fill:#00ff00;fill-opacity:1;stroke:none;stroke-width:3.20900011;stroke-linecap:round;stroke-linejoin:round;stroke-miterlimit:4;stroke-dasharray:none;stroke-opacity:1"
             id="rect4139"
             width="50"
             height="13.66995"
             x="-264.45901"
             y="325.86478"
             ry="6.8349752"
             transform="matrix(0.61113262,-0.79152822,0.79152822,0.61113262,0,0)" />
          <rect
             style="opacity:1;fill:#00ff00;fill-opacity:1;stroke:none;stroke-width:3.20900011;stroke-linecap:round;stroke-linejoin:round;stroke-miterlimit:4;stroke-dasharray:none;stroke-opacity:1"
             id="rect4141"
             width="50"
             height="13.66995"
             x="-117.48886"
             y="308.40707"
             ry="6.8349752"
             transform="matrix(0.61113262,-0.79152822,0.79152822,0.61113262,0,0)" />
          <rect
             style="opacity:1;fill:#00ff00;fill-opacity:1;stroke:none;stroke-width:3.20900011;stroke-linecap:round;stroke-linejoin:round;stroke-miterlimit:4;stroke-dasharray:none;stroke-opacity:1"
             id="rect4143"
             width="50"
             height="13.66995"
             x="-189.24921"
             y="411.82104"
             ry="6.8349752"
             transform="matrix(0.61113262,-0.79152822,0.79152822,0.61113262,0,0)" />
          <rect
             style="opacity:1;fill:#00ff00;fill-opacity:1;stroke:none;stroke-width:3.20900011;stroke-linecap:round;stroke-linejoin:round;stroke-miterlimit:4;stroke-dasharray:none;stroke-opacity:1"
             id="rect4145"
             width="50"
             height="13.66995"
             x="-14.866401"
             y="380.77853"
             ry="6.8349752"
             transform="matrix(0.61113262,-0.79152822,0.79152822,0.61113262,0,0)" />
          <rect
             style="opacity:1;fill:#00ff00;fill-opacity:1;stroke:none;stroke-width:3.20900011;stroke-linecap:round;stroke-linejoin:round;stroke-miterlimit:4;stroke-dasharray:none;stroke-opacity:1"
             id="rect4147"
             width="50"
             height="13.66995"
             x="-35.560329"
             y="502.87997"
             ry="6.8349752"
             transform="matrix(0.61113262,-0.79152822,0.79152822,0.61113262,0,0)" />
          <rect
             style="opacity:1;fill:#00ff00;fill-opacity:1;stroke:none;stroke-width:3.20900011;stroke-linecap:round;stroke-linejoin:round;stroke-miterlimit:4;stroke-dasharray:none;stroke-opacity:1"
             id="rect4149"
             width="50"
             height="13.66995"
             x="-85.308838"
             y="606.98608"
             ry="6.8349752"
             transform="matrix(0.61113262,-0.79152822,0.79152822,0.61113262,0,0)" />
          <rect
             style="opacity:1;fill:#00ff00;fill-opacity:1;stroke:none;stroke-width:3.20900011;stroke-linecap:round;stroke-linejoin:round;stroke-miterlimit:4;stroke-dasharray:none;stroke-opacity:1"
             id="rect4151"
             width="50"
             height="13.66995"
             x="21.893456"
             y="649.29059"
             ry="6.8349752"
             transform="matrix(0.61113262,-0.79152822,0.79152822,0.61113262,0,0)" />
          <rect
             style="opacity:1;fill:#00ff00;fill-opacity:1;stroke:none;stroke-width:3.20900011;stroke-linecap:round;stroke-linejoin:round;stroke-miterlimit:4;stroke-dasharray:none;stroke-opacity:1"
             id="rect4153"
             width="50"
             height="13.66995"
             x="-419.78561"
             y="-58.998383"
             ry="6.8349752"
             transform="matrix(-0.73544944,-0.6775796,0.6775796,-0.73544944,0,0)" />
          <rect
             style="opacity:1;fill:#00ff00;fill-opacity:1;stroke:none;stroke-width:3.20900011;stroke-linecap:round;stroke-linejoin:round;stroke-miterlimit:4;stroke-dasharray:none;stroke-opacity:1"
             id="rect4155"
             width="50"
             height="13.66995"
             x="-604.72107"
             y="50.198109"
             ry="6.8349752"
             transform="matrix(-0.73544944,-0.6775796,0.6775796,-0.73544944,0,0)" />
          <rect
             style="opacity:1;fill:#00ff00;fill-opacity:1;stroke:none;stroke-width:3.20900011;stroke-linecap:round;stroke-linejoin:round;stroke-miterlimit:4;stroke-dasharray:none;stroke-opacity:1"
             id="rect4157"
             width="50"
             height="13.66995"
             x="-360.18048"
             y="-149.26593"
             ry="6.8349752"
             transform="matrix(-0.73544944,-0.6775796,0.6775796,-0.73544944,0,0)" />
          <rect
             style="opacity:1;fill:#00ff00;fill-opacity:1;stroke:none;stroke-width:3.20900011;stroke-linecap:round;stroke-linejoin:round;stroke-miterlimit:4;stroke-dasharray:none;stroke-opacity:1"
             id="rect4159"
             width="50"
             height="13.66995"
             x="-468.08649"
             y="31.732121"
             ry="6.8349752"
             transform="matrix(-0.73544944,-0.6775796,0.6775796,-0.73544944,0,0)" />
          <rect
             style="opacity:1;fill:#00ff00;fill-opacity:1;stroke:none;stroke-width:3.20900011;stroke-linecap:round;stroke-linejoin:round;stroke-miterlimit:4;stroke-dasharray:none;stroke-opacity:1"
             id="rect4161"
             width="50"
             height="13.66995"
             x="-494.36264"
             y="-35.160061"
             ry="6.8349752"
             transform="matrix(-0.73544944,-0.6775796,0.6775796,-0.73544944,0,0)" />
          <rect
             transform="matrix(-0.73544944,-0.6775796,0.6775796,-0.73544944,0,0)"
             ry="6.8349752"
             y="36.825153"
             x="-758.4519"
             height="13.66995"
             width="50"
             id="rect4266"
             style="opacity:1;fill:#00ff00;fill-opacity:1;stroke:none;stroke-width:3.20900011;stroke-linecap:round;stroke-linejoin:round;stroke-miterlimit:4;stroke-dasharray:none;stroke-opacity:1" />
        </g>
        <path
           style="opacity:1;fill:#ff0000;fill-opacity:1;stroke:none;stroke-width:3.20900011;stroke-linecap:round;stroke-linejoin:round;stroke-miterlimit:4;stroke-dasharray:none;stroke-opacity:1"
           d="m 707.15625,247.36133 c -19.35897,14.68409 -43.11357,44.71606 -70.39258,33 l -27.39258,1 -23.95507,-7.28516 c 7.80501,11.49101 -5.646,11.24295 -14.13868,23.76953 -0.97646,1.41781 -2.04481,2.77462 -3.19726,4.06055 13.31652,17.98814 21.54985,38.73024 27.67578,60.61328 71.03626,-5.83938 107.02678,-45.32268 111.40039,-115.1582 z"
           id="path4203"
           inkscape:connector-curvature="0"
           sodipodi:nodetypes="cccccccc" />
      </g>
      <ellipse
         ry="55.5"
         rx="87"
         cy="369.86221"
         cx="186"
         id="path4238"
         style="opacity:1;fill:#ffffff;fill-opacity:1;stroke:#000000;stroke-width:3.20900011;stroke-linecap:round;stroke-linejoin:round;stroke-miterlimit:4;stroke-dasharray:none;stroke-opacity:1" />
      <ellipse
         style="opacity:1;fill:#ffffff;fill-opacity:1;stroke:#000000;stroke-width:3.20900011;stroke-linecap:round;stroke-linejoin:round;stroke-miterlimit:4;stroke-dasharray:none;stroke-opacity:1"
         id="ellipse4246"
         cx="487"
         cy="369.86221"
         rx="87"
         ry="55.5" />
      <g
         transform="translate(454,-40.5)"
         id="g4256">
        <circle
           r="62"
           cy="410.36221"
           cx="-266"
           id="circle4252"
           style="opacity:1;fill:#ff0000;fill-opacity:1;stroke:#000000;stroke-width:3.20900011;stroke-linecap:round;stroke-linejoin:round;stroke-miterlimit:4;stroke-dasharray:none;stroke-opacity:1" />
        <circle
           style="opacity:1;fill:#000000;fill-opacity:1;stroke:#000000;stroke-width:1.61974931;stroke-linecap:round;stroke-linejoin:round;stroke-miterlimit:4;stroke-dasharray:none;stroke-opacity:1"
           id="circle4254"
           cx="-266.5"
           cy="411.86221"
           r="31.294626" />
      </g>
      <g
         id="g4260"
         transform="translate(756,-40.5)">
        <circle
           style="opacity:1;fill:#ff0000;fill-opacity:1;stroke:#000000;stroke-width:3.20900011;stroke-linecap:round;stroke-linejoin:round;stroke-miterlimit:4;stroke-dasharray:none;stroke-opacity:1"
           id="circle4262"
           cx="-266"
           cy="410.36221"
           r="62" />
        <circle
           r="31.294626"
           cy="411.86221"
           cx="-266.5"
           id="circle4264"
           style="opacity:1;fill:#000000;fill-opacity:1;stroke:#000000;stroke-width:1.61974931;stroke-linecap:round;stroke-linejoin:round;stroke-miterlimit:4;stroke-dasharray:none;stroke-opacity:1" />
      </g>
      <path
         sodipodi:nodetypes="cssscssscsssccccc"
         inkscape:connector-curvature="0"
         id="path4266"
         d="m 170.60262,503.71176 c -0.0591,0.48769 -0.11534,0.97569 -0.16879,1.46392 -0.0533,0.48824 -0.10373,0.97675 -0.15124,1.46548 -0.0475,0.48873 -0.0921,0.97769 -0.13363,1.46689 -0.0416,0.4892 -0.0802,0.9786 -0.11614,1.46822 -1.52008,39.64957 15.88179,76.26556 45.24565,103.41317 29.36388,27.14758 70.68975,44.82678 117.01765,46.6028 46.32789,1.776 88.88603,-12.68726 120.24223,-37.50691 31.35618,-24.81966 51.51041,-59.99572 53.0305,-99.64529 0.0101,-0.49045 0.0177,-0.98094 0.0221,-1.47148 0.004,-0.49055 0.006,-0.98113 0.005,-1.47174 -0.001,-0.49061 -0.006,-0.98123 -0.0131,-1.47188 -0.007,-0.49063 -0.0175,-0.98129 -0.0307,-1.47191 l -79.80036,23.84964 c -27.41835,2.87307 -57.19813,5.65562 -87.91322,8.40229 -30.59357,-0.61743 -63.1541,-3.95349 -93.28503,-13.66725 -18.65247,-4.63602 -45.85896,-17.60014 -73.95054,-31.42595 z"
         style="opacity:1;fill:#ffffff;fill-opacity:1;stroke:#000000;stroke-width:4.63742447;stroke-linecap:round;stroke-linejoin:round;stroke-miterlimit:4;stroke-dasharray:none;stroke-opacity:1" />
      <g
         transform="matrix(1.0884809,0.04173015,-0.04372428,1.1404953,-5.2831145,-105.91105)"
         id="g4345">
        <path
           style="fill:#000000;fill-rule:evenodd;stroke:#000000;stroke-width:2.59215546;stroke-linecap:butt;stroke-linejoin:miter;stroke-miterlimit:4;stroke-dasharray:none;stroke-opacity:1"
           d="m 321.09604,561.77734 36.29444,97.03735"
           id="path4275"
           inkscape:connector-curvature="0" />
        <path
           inkscape:connector-curvature="0"
           id="path4277"
           d="m 318.62669,564.70746 -35.2015,88.23216"
           style="fill:#000000;fill-rule:evenodd;stroke:#000000;stroke-width:2.59215546;stroke-linecap:butt;stroke-linejoin:miter;stroke-miterlimit:4;stroke-dasharray:none;stroke-opacity:1" />
        <path
           style="fill:#000000;fill-rule:evenodd;stroke:#000000;stroke-width:2.59215546;stroke-linecap:butt;stroke-linejoin:miter;stroke-miterlimit:4;stroke-dasharray:none;stroke-opacity:1"
           d="m 242.41955,551.49707 40.77814,98.45576"
           id="path4279"
           inkscape:connector-curvature="0" />
        <path
           inkscape:connector-curvature="0"
           id="path4281"
           d="m 242.0006,551.50798 -27.11452,61.73229"
           style="fill:#000000;fill-rule:evenodd;stroke:#000000;stroke-width:2.56759787;stroke-linecap:butt;stroke-linejoin:miter;stroke-miterlimit:4;stroke-dasharray:none;stroke-opacity:1" />
        <path
           style="fill:#000000;fill-rule:evenodd;stroke:#000000;stroke-width:2.59215546;stroke-linecap:butt;stroke-linejoin:miter;stroke-miterlimit:4;stroke-dasharray:none;stroke-opacity:1"
           d="m 392.7634,555.88262 -35.16891,98.51949"
           id="path4283"
           inkscape:connector-curvature="0" />
        <path
           inkscape:connector-curvature="0"
           id="path4285"
           d="m 394.04073,554.37338 31.86618,79.45091"
           style="fill:#000000;fill-rule:evenodd;stroke:#000000;stroke-width:2.59215546;stroke-linecap:butt;stroke-linejoin:miter;stroke-miterlimit:4;stroke-dasharray:none;stroke-opacity:1" />
        <path
           style="fill:#000000;fill-rule:evenodd;stroke:#000000;stroke-width:2.59215546;stroke-linecap:butt;stroke-linejoin:miter;stroke-miterlimit:4;stroke-dasharray:none;stroke-opacity:1"
           d="M 464.5865,533.82641 424.95088,638.17408"
           id="path4287"
           inkscape:connector-curvature="0" />
        <path
           inkscape:connector-curvature="0"
           id="path4341"
           d="m 184.15348,531.38526 31.31028,78.67938"
           style="fill:#000000;fill-rule:evenodd;stroke:#000000;stroke-width:2.03048944;stroke-linecap:butt;stroke-linejoin:miter;stroke-miterlimit:4;stroke-dasharray:none;stroke-opacity:1" />
        <path
           style="fill:#000000;fill-rule:evenodd;stroke:#000000;stroke-width:1.05991125;stroke-linecap:butt;stroke-linejoin:miter;stroke-miterlimit:4;stroke-dasharray:none;stroke-opacity:1"
           d="m 465.69027,533.19749 15.2367,44.05492"
           id="path4343"
           inkscape:connector-curvature="0" />
      </g>
    </g>
  </g>
</svg>
